<svg xmlns="http://www.w3.org/2000/svg" viewBox="0 0 500 500"><g id="freepik--Character--inject-3"><g id="freepik--character--inject-3"><path d="M393.11,274.22c3.91.76,5.69,2.09,7.91,7.51s6.19,18.62,7.11,22.25c.42,1.62-9.85,16.14-9.41,15.92.13-.06-4-7-4-7l5.05-9.64-3.59-8.78Z" style="fill:#ffa8a7"></path><path d="M391.79,274.3s3.56-.64,5.92,1.32,2.72,3.27,4.32,7.29,4.22,12.4,4.22,12.4-.76,4.5-8.09,5.39l-6.28-14.15S389.69,278,391.79,274.3Z" style="fill:#BA68C8"></path><path d="M384.43,390.41a8.32,8.32,0,0,0,.23,3.81,8.54,8.54,0,0,0,3.08,3.71,15.27,15.27,0,0,1,2.56,3.1,12.8,12.8,0,0,0,2.67,3.34c.83.72,3.18.79,4.31.31s1.52-.9,1.45-2.71-5.56-2.43-5.56-2.43Z" style="fill:#455a64"></path><path d="M398,396.58c.46.17.58,1.06.65,2.84.06,1.34.62,3.3-1.23,4.14a4.51,4.51,0,0,1-4.87-1c-1.26-1.58-2.11-3-3.9-4.89-1.56-1.67-3.17-2.23-3.87-5.57-.44-2.14-.09-3,1.35-3.65,2-.84,5.11,1.92,6.66,2.35C394.15,391.15,397.55,396.4,398,396.58Z" style="fill:#BA68C8"></path><path d="M398,396.58c.46.17.58,1.06.65,2.84.06,1.34.62,3.3-1.23,4.14a4.51,4.51,0,0,1-4.87-1c-1.26-1.58-2.11-3-3.9-4.89-1.56-1.67-3.17-2.23-3.87-5.57-.44-2.14-.09-3,1.35-3.65,2-.84,5.11,1.92,6.66,2.35C394.15,391.15,397.55,396.4,398,396.58Z" style="opacity:0.2"></path><path d="M392.81,390.77l-.26-.09a5.11,5.11,0,0,0-4.3,2.82c-.26.59.55,1,1,.59a5.46,5.46,0,0,1,4.29-2.81A2.3,2.3,0,0,0,392.81,390.77Z" style="fill:#fafafa"></path><path d="M394.09,391.78a5.09,5.09,0,0,0-4,2.8c-.26.58.55,1,1,.58a5.27,5.27,0,0,1,3.58-2.67C394.51,392.24,394.3,392,394.09,391.78Z" style="fill:#fafafa"></path><path d="M359.48,417.82c-.3,1.5.24,2.28,2.18,3.4a10.81,10.81,0,0,0,8.18.57c3.2-.93,4.73-2.32,6.06-2.66s4.62-.36,5.93-.74,1.29-1.06,1.29-2.64Z" style="fill:#455a64"></path><path d="M381.83,408.13s.62,1.9,1,3.55c.27,1.32.65,3.51.19,4.5s-2.26,1.63-5,1.61c-1.8,0-4.62,1.21-6.54,2.28a10,10,0,0,1-6.25.87c-2.48-.29-5-1.73-5.44-2.75s-.51-1.8,5.33-4.29c.06,0,6.78-2.5,9.6-5.62Z" style="fill:#BA68C8"></path><g style="opacity:0.2"><path d="M381.83,408.13s.62,1.9,1,3.55c.27,1.32.65,3.51.19,4.5s-2.26,1.63-5,1.61c-1.8,0-4.62,1.21-6.54,2.28a10,10,0,0,1-6.25.87c-2.48-.29-5-1.73-5.44-2.75s-.51-1.8,5.33-4.29c.06,0,6.78-2.5,9.6-5.62Z"></path></g><path d="M370.6,420.46s-.5-5-4.57-6.45c-3.69-1.3-6.9,1.43-6.55,3.81C359.72,419.41,364.21,423,370.6,420.46Z" style="fill:#fafafa"></path><path d="M367.06,413.07a4.74,4.74,0,0,1,2.78,1.24c1.18,1,1.21,1.64,1.21,1.64a.62.62,0,0,0,1.06-.51s-.27-2.53-3.6-3A1.35,1.35,0,0,0,367.06,413.07Z" style="fill:#fafafa"></path><path d="M369.39,412a4.16,4.16,0,0,1,2.81,1.12c1.17,1,1.18,1.77,1.18,1.77a.62.62,0,0,0,1.06-.51s-.27-2.53-3.6-3.05A1.35,1.35,0,0,0,369.39,412Z" style="fill:#fafafa"></path><path d="M371.7,410.63a4.16,4.16,0,0,1,2.88.93c1.24.9,1.3,1.68,1.3,1.68a.62.62,0,0,0,1-.58s-.45-2.51-3.81-2.8A1.36,1.36,0,0,0,371.7,410.63Z" style="fill:#fafafa"></path><path d="M398,393.71v3.4a5.33,5.33,0,0,1-5.5.15c-.1-.21-.37-3.55-.37-3.55Z" style="fill:#ffa8a7"></path><path d="M381.83,405.78s0,1.62,0,2.54-1.08,2.3-3.9,2.2c-2-.07-3.36-.61-3.29-2.24v-2.35Z" style="fill:#ffa8a7"></path><path d="M401.68,364.85c-.18-7.18-1.65-10.33-1.65-10.33s.54-8.86,1.74-19.71c1.81-16.51,1-19.71-2.28-27.15,0,0-27.81-2.81-28.65,8.74-1.06,14.39-1.18,43.66-.8,48.74s.37.39,1.61,10.68c1,8.14,3,30.11,3,30.11a7.65,7.65,0,0,0,7.19-.15s2.27-26.88,2-32.75a67.27,67.27,0,0,0-.69-9s3.25-23.19,3.75-26.92c0,0,.45,6.68.84,11.76s.35,9.18,1.42,19.69c.84,8.25,2.87,26.06,2.87,26.06a6.86,6.86,0,0,0,6.07-.45S401.83,370.65,401.68,364.85Z" style="fill:#455a64"></path><path d="M385.72,394.54s.15-4,5.52-4.52l.31.17a4.65,4.65,0,0,0-2.64-2,3.65,3.65,0,0,0-4.13,1.19C383.84,390.55,384.79,393.77,385.72,394.54Z" style="fill:#fafafa"></path><polygon points="378.87 270.48 380.18 281.22 389.62 280.37 388.55 268.44 378.87 270.48" style="fill:#ffa8a7"></polygon><path d="M398.84,279.41c-1-2.82-3.42-5.78-7-5.11-1,.18-1.78.31-2.67.49-.08,2.48-4.75,3.76-9.39,2.26-1.4.4-2.68.81-3.84,1.22-3.33,1.19-4.66,6.71-4.74,16S369.78,322,369.78,322s7,3.71,20.07,1.34,12.86-6.82,12.86-6.82-.26-5.42-6.16-14.52C401.56,288.69,400.38,283.61,398.84,279.41Z" style="fill:#37474f"></path><path d="M371.85,256.83a8.28,8.28,0,0,1,.72-8c3.17-5,9.28-5.83,16.52-3.88a12.84,12.84,0,0,1,9.06,11.66c.35,5.31-14.46,9.23-14.13,12.87Z" style="fill:#263238"></path><path d="M371.54,258.85s-2,3.22-1.73,3.55a4.93,4.93,0,0,0,1.62.65Z" style="fill:#f28f8f"></path><path d="M377.67,248.64c-2,1.1-5.48,3.14-6.18,10.67-.72,7.73,1.06,10.36,2.14,11.34.73.66,4.39.81,6.28.17,2.37-.81,7.47-3.5,9.79-7.54,2.73-4.76,3.15-11-.21-13.36A12.28,12.28,0,0,0,377.67,248.64Z" style="fill:#ffa8a7"></path><path d="M377.77,257.73a7.65,7.65,0,0,1-4.91-6.17c-.75-4.91,5.37-7,5.37-7Z" style="fill:#263238"></path><path d="M377.07,249s-1.58,7.08.67,11.46c0,0,1.17-2.77,3.54-2.05s2.27,3.9.44,5.56a3.51,3.51,0,0,1-3.65.88,15.7,15.7,0,0,0,3.53,5.34s7,3.14,13.14-3.74c5.53-6.25,4.5-17.14-4-19.71S377.07,249,377.07,249Z" style="fill:#263238"></path><path d="M406.25,276.69h0a9.62,9.62,0,0,1-9.62-9.61V251h0a9.62,9.62,0,0,1,9.62,9.61Z" style="fill:#263238"></path><path d="M397.7,248.89a1.66,1.66,0,0,0-1.07,2.09l3.16-1A1.66,1.66,0,0,0,397.7,248.89Z" style="fill:#263238"></path><path d="M352,295.29c-1.37-1.57-1.6-5-3.42-7.41s-1.5-4.78-2.64-3.71-.29,5-.29,5-2.13,3.95-2.31,6,5.16,7.09,5.16,7.09Z" style="fill:#ffa8a7"></path><path d="M345.92,288.87s-2.17,3-11.92-.92c-2.69-1.1-.87,4.69,2.43,7.09,3.06,2.22,6.88,2.91,9.94,5C346.38,299.72,345.92,288.87,345.92,288.87Z" style="fill:#ffa8a7"></path><path d="M376.71,278c-2.77,1-5.2,2.08-7.8,6.95-3.33,6.26-9.38,18.52-9.38,18.52L352,295.29s-1.1-1.55-3.14,1.83-1.14,4.31-1.14,4.31,8.78,11.76,10.39,13.25,4.26.34,6-2,10.66-18.53,10.66-18.53S380.64,283.9,376.71,278Z" style="fill:#ffa8a7"></path><path d="M378.06,277.55a10.6,10.6,0,0,0-8.46,5.63c-3.32,6-6.82,12.77-6.82,12.77s2.41,5.81,8.54,6.25c0-.6,5-9.5,6.91-13.31S379.94,279.26,378.06,277.55Z" style="fill:#BA68C8"></path><path d="M386.92,337.13l.53-5.62a21.32,21.32,0,0,0,8.48-3.21s-1.81,2.89-6.76,4.21L388.05,338l-.29,10.9Z" style="fill:#37474f"></path></g></g></svg>