<svg xmlns="http://www.w3.org/2000/svg" viewBox="0 0 500 500"><g id="freepik--speech-bubbles--inject-3"><path d="M425.21,95.43V84l-9.61-.83a.59.59,0,0,0-.4.08c-.38.2-9.48,5.41-9.59,5.48a.7.7,0,0,0-.16,1.08l10.19,11.05Z" style="fill:#BA68C8"></path><path d="M415.64,100.9,405.45,89.85a.71.71,0,0,1,.58-1.18l9.61.84Z" style="fill:#BA68C8"></path><path d="M425.2,84l-9.56,5.48L406,88.67a.93.93,0,0,0-.34,0c.77-.45,9.16-5.25,9.5-5.43a.64.64,0,0,1,.41-.08Z" style="fill:#BA68C8"></path><path d="M425.2,84l-9.56,5.48L406,88.67a.93.93,0,0,0-.34,0c.77-.45,9.16-5.25,9.5-5.43a.64.64,0,0,1,.41-.08Z" style="fill:#fff;opacity:0.5"></path><path d="M415.66,76.67a7.69,7.69,0,0,1,3.46-6L421.94,69a7.63,7.63,0,0,1,6.93,0L458.94,86.4a7.64,7.64,0,0,1,3.47,6v34.74a7.65,7.65,0,0,1-3.47,6l-2.82,1.63a7.69,7.69,0,0,1-6.93,0l-8.87-5.13L428.78,123l-9.66-5.58a7.65,7.65,0,0,1-3.46-6Z" style="fill:#BA68C8"></path><path d="M462.41,127.14a7.65,7.65,0,0,1-3.47,6l-2.82,1.63a7.77,7.77,0,0,1-6.34.28c1.64.61,2.88-.31,2.88-2.28V98a7.07,7.07,0,0,0-1-3.42L461.39,89a7.07,7.07,0,0,1,1,3.42Z" style="opacity:0.2"></path><path d="M415.77,75.68c.41-1.47,1.75-1.94,3.35-1L449.2,92a6.94,6.94,0,0,1,2.44,2.59L461.38,89a6.91,6.91,0,0,0-2.44-2.58L428.88,69A7.69,7.69,0,0,0,422,69l-2.83,1.63A7.67,7.67,0,0,0,415.77,75.68Z" style="fill:#fff;opacity:0.5"></path><polygon points="434.16 89.35 422.71 87.75 424.31 108.88 434.16 121.67 434.16 89.35" style="fill:#455a64"></polygon><polygon points="434.16 89.35 445.61 100.98 444 120.25 434.16 121.67 434.16 89.35" style="fill:#37474f"></polygon><path d="M438.87,116.84l2.63,1.52-7.32-25.79-7.31,17.34,2.62,1.52,1.58-3.76,6.22,3.59ZM432,105.4l2.16-5.14,2.16,7.64Z" style="fill:#fafafa"></path><path d="M425.21,160.27V148.89l-9.61-.84a.74.74,0,0,0-.4.08c-.38.2-9.48,5.41-9.59,5.48a.71.71,0,0,0-.16,1.09l10.19,11Z" style="fill:#BA68C8"></path><path d="M415.64,165.74l-10.19-11a.7.7,0,0,1,.58-1.18l9.61.84Z" style="fill:#ebebeb"></path><path d="M425.2,148.88l-9.56,5.48-9.61-.84a.76.76,0,0,0-.34,0c.77-.46,9.16-5.25,9.5-5.44a.71.71,0,0,1,.41-.08Z" style="fill:#BA68C8"></path><path d="M425.2,148.88l-9.56,5.48-9.61-.84a.76.76,0,0,0-.34,0c.77-.46,9.16-5.25,9.5-5.44a.71.71,0,0,1,.41-.08Z" style="fill:#f5f5f5"></path><path d="M415.66,141.51a7.65,7.65,0,0,1,3.46-6l2.82-1.63a7.63,7.63,0,0,1,6.93,0l30.07,17.36a7.65,7.65,0,0,1,3.47,6V192a7.64,7.64,0,0,1-3.47,6l-2.82,1.63a7.63,7.63,0,0,1-6.93,0l-8.87-5.12-11.54-6.67-9.66-5.57a7.67,7.67,0,0,1-3.46-6Z" style="fill:#ebebeb"></path><path d="M462.41,192a7.64,7.64,0,0,1-3.47,6l-2.82,1.63a7.73,7.73,0,0,1-6.34.28c1.64.62,2.88-.3,2.88-2.28V162.87a7,7,0,0,0-1-3.41l9.75-5.63a7,7,0,0,1,1,3.41Z" style="fill:#e0e0e0"></path><path d="M415.77,140.52c.41-1.47,1.75-1.94,3.35-1l30.08,17.36a6.94,6.94,0,0,1,2.44,2.59l9.74-5.62a6.94,6.94,0,0,0-2.44-2.59l-30.06-17.37a7.69,7.69,0,0,0-6.93,0l-2.83,1.63A7.67,7.67,0,0,0,415.77,140.52Z" style="fill:#f5f5f5"></path><polygon points="434.16 162.75 436.68 157.99 445.61 163.15 434.16 184.68 422.71 149.92 431.63 155.07 434.16 162.75" style="fill:#BA68C8"></polygon><polygon points="434.16 162.75 436.68 157.99 445.61 163.15 434.16 184.68 422.71 149.92 431.63 155.07 434.16 162.75" style="opacity:0.15"></polygon><path d="M434.16,162.75l-2.53-7.67-4-2.3c3.19,9.69,6.51,19.75,6.51,19.75l6.5-12.24-4-2.3Z" style="fill:#37474f"></path><path d="M425.21,225.12V213.73l-9.61-.84a.74.74,0,0,0-.4.08l-9.59,5.48a.71.71,0,0,0-.16,1.09l10.19,11Z" style="fill:#BA68C8"></path><path d="M415.64,230.58l-10.19-11a.7.7,0,0,1,.58-1.18l9.61.84Z" style="fill:#37474f"></path><path d="M425.2,213.73l-9.56,5.47-9.61-.84a.76.76,0,0,0-.34,0l9.5-5.44a.79.79,0,0,1,.41-.08Z" style="fill:#BA68C8"></path><path d="M425.2,213.73l-9.56,5.47-9.61-.84a.76.76,0,0,0-.34,0l9.5-5.44a.79.79,0,0,1,.41-.08Z" style="fill:#455a64"></path><path d="M415.66,206.35a7.67,7.67,0,0,1,3.46-6l2.82-1.63a7.69,7.69,0,0,1,6.93,0l30.07,17.36a7.67,7.67,0,0,1,3.47,6v34.73a7.64,7.64,0,0,1-3.47,6l-2.82,1.63a7.63,7.63,0,0,1-6.93,0l-8.87-5.12-11.54-6.67-9.66-5.57a7.65,7.65,0,0,1-3.46-6Z" style="fill:#37474f"></path><path d="M462.41,256.82a7.64,7.64,0,0,1-3.47,6l-2.82,1.63a7.73,7.73,0,0,1-6.34.28c1.64.62,2.88-.3,2.88-2.28V227.72a7.07,7.07,0,0,0-1-3.42l9.75-5.63a7.07,7.07,0,0,1,1,3.42Z" style="fill:#263238"></path><path d="M415.77,205.37c.41-1.47,1.75-1.94,3.35-1l30.08,17.37a6.91,6.91,0,0,1,2.44,2.58l9.74-5.62a6.94,6.94,0,0,0-2.44-2.59l-30.06-17.37a7.69,7.69,0,0,0-6.93,0l-2.83,1.64A7.64,7.64,0,0,0,415.77,205.37Z" style="fill:#455a64"></path><path d="M440.85,232.89c.71-3.6.42-6.91-1-8.79a3.33,3.33,0,0,0-2.72-1.44h-.25a5.44,5.44,0,0,0-2.65,1c-2-3.78-4-6.1-5.43-6.1h-.21a1.28,1.28,0,0,0-.9.68c-.69,1.15-.73,3.64-.21,6.91a5.53,5.53,0,0,0-3.74.27,2.35,2.35,0,0,0-1.16,2.18c0,2.17,1.91,5.15,4.88,8-.71,3.6-.42,6.91,1,8.79a3.87,3.87,0,0,0,1.13,1,3.11,3.11,0,0,0,1.58.42,4,4,0,0,0,1.06-.15,6.47,6.47,0,0,0,1.91-1c1.61,3,3.22,5.17,4.51,5.92a2,2,0,0,0,1,.3.68.68,0,0,0,.2,0,1.3,1.3,0,0,0,.91-.68c.69-1.15.72-3.64.2-6.93a9.31,9.31,0,0,0,1.59.16,4.07,4.07,0,0,0,2.05-.46,2.36,2.36,0,0,0,1.16-2.18C445.73,238.71,443.82,235.73,440.85,232.89Zm-3.43,5.79a19.44,19.44,0,0,1-1.1,1.75c-.66-.32-1.36-.68-2.1-1.11s-1.45-.87-2.12-1.33c-.39-1-.78-2.06-1.15-3.16s-.69-2.12-1-3.12c.28-.62.58-1.24.92-1.85s.72-1.21,1.09-1.75c.67.32,1.37.68,2.11,1.11s1.52.92,2.23,1.4c.39,1,.77,2,1.15,3.15s.65,2,.92,2.94C438.11,237.36,437.78,238,437.42,238.68Zm1-5.11c-.22-.66-.45-1.31-.68-1.94.67.5,1.3,1,1.89,1.54-.18.69-.39,1.4-.65,2.11C438.78,234.72,438.6,234.15,438.4,233.57Zm-4.18-5.64q-.77-.44-1.5-.81a12.89,12.89,0,0,1,1.42-1.5c.47.95.95,2,1.43,3.13C435.13,228.47,434.68,228.19,434.22,227.93Zm-4.25.88c-.18.33-.36.66-.52,1-.27-1.05-.5-2-.68-2.95a18.74,18.74,0,0,1,2,.69C430.47,228,430.21,228.37,430,228.81Zm0,6.22c.23.67.46,1.32.7,2-.71-.53-1.38-1.08-2-1.63a23.15,23.15,0,0,1,.7-2.25C429.59,233.75,429.79,234.38,430,235Zm4.08,5.58c.51.29,1,.55,1.49.8a12.74,12.74,0,0,1-1.35,1.45c-.46-.92-.92-1.92-1.37-3C433.26,240.11,433.67,240.37,434.09,240.61Zm4.25-.88c.21-.37.4-.74.58-1.12.29,1.1.53,2.14.72,3.1a18.34,18.34,0,0,1-2.06-.72C437.84,240.59,438.1,240.17,438.34,239.73Zm-1.36-10c-.67-1.71-1.37-3.28-2.07-4.69a5.35,5.35,0,0,1,1.67-.84,3.23,3.23,0,0,1,.85-.12,2.21,2.21,0,0,1,1.15.29,2.43,2.43,0,0,1,.68.61c.95,1.26,1.21,3.91.61,7A35.8,35.8,0,0,0,437,229.71Zm-5.53-3.19a21.23,21.23,0,0,0-2.93-1.07c-.5-3.1-.44-5.23.06-6.06A.65.65,0,0,1,429,219h.09a1.08,1.08,0,0,1,.54.18c.95.55,2.32,2.33,3.81,5.11A13.69,13.69,0,0,0,431.45,226.52Zm-2.62,4.67a23,23,0,0,0-1.11,3.28c-2.56-2.48-4.09-4.88-4.09-6.35a1.46,1.46,0,0,1,.76-1.34,3.47,3.47,0,0,1,1.7-.36,8.1,8.1,0,0,1,1.64.19C428,228,428.37,229.56,428.83,231.19Zm2.61,7.72c.66,1.64,1.34,3.17,2,4.57a4.78,4.78,0,0,1-2.4,1,2.21,2.21,0,0,1-2-.89c-.95-1.27-1.21-3.92-.61-7A34.32,34.32,0,0,0,431.44,238.91Zm5.42,3.11a20.55,20.55,0,0,0,3,1.1c.51,3.11.45,5.25-.05,6.09a.69.69,0,0,1-.45.36c-.91.16-2.62-1.87-4.49-5.4A13.36,13.36,0,0,0,436.86,242Zm2.68-4.8a23.74,23.74,0,0,0,1-3.15c2.56,2.48,4.09,4.88,4.09,6.35a1.48,1.48,0,0,1-.76,1.34,5,5,0,0,1-3.24.19C440.4,240.49,440,238.9,439.54,237.22Z" style="fill:#BA68C8"></path><path d="M436.19,235.44c0,1.5-.91,2.19-2,1.54a4.86,4.86,0,0,1-2-3.89c0-1.49.91-2.18,2-1.53A4.86,4.86,0,0,1,436.19,235.44Z" style="fill:#BA68C8"></path><g style="opacity:0.65"><path d="M440.85,232.89c.71-3.6.42-6.91-1-8.79a3.33,3.33,0,0,0-2.72-1.44h-.25a5.44,5.44,0,0,0-2.65,1c-2-3.78-4-6.1-5.43-6.1h-.21a1.28,1.28,0,0,0-.9.68c-.69,1.15-.73,3.64-.21,6.91a5.53,5.53,0,0,0-3.74.27,2.35,2.35,0,0,0-1.16,2.18c0,2.17,1.91,5.15,4.88,8-.71,3.6-.42,6.91,1,8.79a3.87,3.87,0,0,0,1.13,1,3.11,3.11,0,0,0,1.58.42,4,4,0,0,0,1.06-.15,6.47,6.47,0,0,0,1.91-1c1.61,3,3.22,5.17,4.51,5.92a2,2,0,0,0,1,.3.68.68,0,0,0,.2,0,1.3,1.3,0,0,0,.91-.68c.69-1.15.72-3.64.2-6.93a9.31,9.31,0,0,0,1.59.16,4.07,4.07,0,0,0,2.05-.46,2.36,2.36,0,0,0,1.16-2.18C445.73,238.71,443.82,235.73,440.85,232.89Zm-3.43,5.79a19.44,19.44,0,0,1-1.1,1.75c-.66-.32-1.36-.68-2.1-1.11s-1.45-.87-2.12-1.33c-.39-1-.78-2.06-1.15-3.16s-.69-2.12-1-3.12c.28-.62.58-1.24.92-1.85s.72-1.21,1.09-1.75c.67.32,1.37.68,2.11,1.11s1.52.92,2.23,1.4c.39,1,.77,2,1.15,3.15s.65,2,.92,2.94C438.11,237.36,437.78,238,437.42,238.68Zm1-5.11c-.22-.66-.45-1.31-.68-1.94.67.5,1.3,1,1.89,1.54-.18.69-.39,1.4-.65,2.11C438.78,234.72,438.6,234.15,438.4,233.57Zm-4.18-5.64q-.77-.44-1.5-.81a12.89,12.89,0,0,1,1.42-1.5c.47.95.95,2,1.43,3.13C435.13,228.47,434.68,228.19,434.22,227.93Zm-4.25.88c-.18.33-.36.66-.52,1-.27-1.05-.5-2-.68-2.95a18.74,18.74,0,0,1,2,.69C430.47,228,430.21,228.37,430,228.81Zm0,6.22c.23.67.46,1.32.7,2-.71-.53-1.38-1.08-2-1.63a23.15,23.15,0,0,1,.7-2.25C429.59,233.75,429.79,234.38,430,235Zm4.08,5.58c.51.29,1,.55,1.49.8a12.74,12.74,0,0,1-1.35,1.45c-.46-.92-.92-1.92-1.37-3C433.26,240.11,433.67,240.37,434.09,240.61Zm4.25-.88c.21-.37.4-.74.58-1.12.29,1.1.53,2.14.72,3.1a18.34,18.34,0,0,1-2.06-.72C437.84,240.59,438.1,240.17,438.34,239.73Zm-1.36-10c-.67-1.71-1.37-3.28-2.07-4.69a5.35,5.35,0,0,1,1.67-.84,3.23,3.23,0,0,1,.85-.12,2.21,2.21,0,0,1,1.15.29,2.43,2.43,0,0,1,.68.61c.95,1.26,1.21,3.91.61,7A35.8,35.8,0,0,0,437,229.71Zm-5.53-3.19a21.23,21.23,0,0,0-2.93-1.07c-.5-3.1-.44-5.23.06-6.06A.65.65,0,0,1,429,219h.09a1.08,1.08,0,0,1,.54.18c.95.55,2.32,2.33,3.81,5.11A13.69,13.69,0,0,0,431.45,226.52Zm-2.62,4.67a23,23,0,0,0-1.11,3.28c-2.56-2.48-4.09-4.88-4.09-6.35a1.46,1.46,0,0,1,.76-1.34,3.47,3.47,0,0,1,1.7-.36,8.1,8.1,0,0,1,1.64.19C428,228,428.37,229.56,428.83,231.19Zm2.61,7.72c.66,1.64,1.34,3.17,2,4.57a4.78,4.78,0,0,1-2.4,1,2.21,2.21,0,0,1-2-.89c-.95-1.27-1.21-3.92-.61-7A34.32,34.32,0,0,0,431.44,238.91Zm5.42,3.11a20.55,20.55,0,0,0,3,1.1c.51,3.11.45,5.25-.05,6.09a.69.69,0,0,1-.45.36c-.91.16-2.62-1.87-4.49-5.4A13.36,13.36,0,0,0,436.86,242Zm2.68-4.8a23.74,23.74,0,0,0,1-3.15c2.56,2.48,4.09,4.88,4.09,6.35a1.48,1.48,0,0,1-.76,1.34,5,5,0,0,1-3.24.19C440.4,240.49,440,238.9,439.54,237.22Z" style="fill:#fff"></path><path d="M436.19,235.44c0,1.5-.91,2.19-2,1.54a4.86,4.86,0,0,1-2-3.89c0-1.49.91-2.18,2-1.53A4.86,4.86,0,0,1,436.19,235.44Z" style="fill:#fff"></path></g></g></svg>