<svg xmlns="http://www.w3.org/2000/svg" viewBox="0 0 500 500"><g id="freepik--Device--inject-3"><g id="freepik--PC--inject-3"><g id="freepik--Monitor--inject-3"><path d="M202.19,350.05l31.62-18.28c3.26-1.89,4.89-4.35,4.89-6.82s0-4.4,0-4.4L200.67,299a7,7,0,0,1-3.15-5.46v-39l-55.23,31.91v39a7,7,0,0,0,3.15,5.45l33.15,19.14C185.11,353.81,195.68,353.81,202.19,350.05Z" style="fill:#BA68C8"></path><g style="opacity:0.5"><path d="M202.19,350.05l31.62-18.28c3.26-1.89,4.89-4.35,4.89-6.82s0-4.4,0-4.4L200.67,299a7,7,0,0,1-3.15-5.46v-39l-55.23,31.91v39a7,7,0,0,0,3.15,5.45l33.15,19.14C185.11,353.81,195.68,353.81,202.19,350.05Z"></path></g><path d="M155.55,332.36v4.38l-10.12-5.83a7,7,0,0,1-3.15-5.46v-39l10.53-6.07c.21,2.67.45,5.43.67,8.12l-7.38,4.27v30.46a6.93,6.93,0,0,0,3.14,5.45Z" style="fill:#BA68C8"></path><path d="M155.55,332.36v4.38l-10.12-5.83a7,7,0,0,1-3.15-5.46v-39l10.53-6.07c.21,2.67.45,5.43.67,8.12l-7.38,4.27v30.46a6.93,6.93,0,0,0,3.14,5.45Z" style="opacity:0.7000000000000001"></path><path d="M146.1,323.26a6.94,6.94,0,0,0,3.15,5.45l29.33,16.94c6.52,3.77,17.09,3.77,23.61,0l31.64-18.28c6.52-3.76,6.52-9.86,0-13.62L204.48,296.8a6.94,6.94,0,0,1-3.15-5.45V260.89L146.1,292.8Z" style="fill:#BA68C8"></path><path d="M146.1,323.26a6.94,6.94,0,0,0,3.15,5.45l29.33,16.94c6.52,3.77,17.09,3.77,23.61,0l31.64-18.28c6.52-3.76,6.52-9.86,0-13.62L204.48,296.8a6.94,6.94,0,0,1-3.15-5.45V260.89L146.1,292.8Z" style="opacity:0.30000000000000004"></path><path d="M210.89,300.51h0l-6.41-3.7a6.94,6.94,0,0,1-3.15-5.45V260.89L146.1,292.8v30.46a6.94,6.94,0,0,0,3.15,5.45l6.3,3.64Z" style="fill:#BA68C8;opacity:0.7000000000000001"></path><path d="M210.89,300.51h0l-6.41-3.7a6.94,6.94,0,0,1-3.15-5.45V260.89L146.1,292.8v30.46a6.94,6.94,0,0,0,3.15,5.45l6.3,3.64Z" style="opacity:0.6000000000000001"></path><path d="M238.71,320.56V325c0,2.47-1.64,4.92-4.89,6.81L202.2,350a23.63,23.63,0,0,1-11.27,2.8v-4.38a23.63,23.63,0,0,0,11.27-2.8l31.62-18.29C237.07,325.5,238.71,323,238.71,320.56Z" style="fill:#BA68C8"></path><path d="M238.71,320.56V325c0,2.47-1.64,4.92-4.89,6.81L202.2,350a23.63,23.63,0,0,1-11.27,2.8v-4.38a23.63,23.63,0,0,0,11.27-2.8l31.62-18.29C237.07,325.5,238.71,323,238.71,320.56Z" style="opacity:0.2"></path><path d="M57.42,365.32a8.45,8.45,0,0,0,7.63-.14L278.63,241.87a8.72,8.72,0,0,0,3.93-6.82V48.11a8.41,8.41,0,0,0-3.69-6.67,8.4,8.4,0,0,0-7.62.14L57.67,164.89a8.68,8.68,0,0,0-3.93,6.81v187A8.47,8.47,0,0,0,57.42,365.32Z" style="fill:#BA68C8"></path><path d="M57.42,365.32a8.45,8.45,0,0,0,7.63-.14L278.63,241.87a8.72,8.72,0,0,0,3.93-6.82V48.11a8.41,8.41,0,0,0-3.69-6.67,8.4,8.4,0,0,0-7.62.14L57.67,164.89a8.68,8.68,0,0,0-3.93,6.81v187A8.47,8.47,0,0,0,57.42,365.32Z" style="opacity:0.30000000000000004"></path><path d="M65.05,365.17,278.63,241.86a8.69,8.69,0,0,0,3.94-6.81V48.1c0-2.51-1.77-3.52-3.94-2.27L65.05,169.14A8.72,8.72,0,0,0,61.12,176V362.9C61.12,365.41,62.88,366.43,65.05,365.17Z" style="fill:#BA68C8"></path><path d="M65.05,365.17,278.63,241.86a8.69,8.69,0,0,0,3.94-6.81V48.1c0-2.51-1.77-3.52-3.94-2.27L65.05,169.14A8.72,8.72,0,0,0,61.12,176V362.9C61.12,365.41,62.88,366.43,65.05,365.17Z" style="fill:#BA68C8"></path><path d="M65.05,365.17,278.63,241.86a8.69,8.69,0,0,0,3.94-6.81V48.1c0-2.51-1.77-3.52-3.94-2.27L65.05,169.14A8.72,8.72,0,0,0,61.12,176V362.9C61.12,365.41,62.88,366.43,65.05,365.17Z" style="opacity:0.5"></path><path d="M64.47,365.47a8.48,8.48,0,0,1-7-.15,8.43,8.43,0,0,1-3.69-6.68v-21l7.38,4.27v21C61.11,365.2,62.56,366.23,64.47,365.47Z" style="fill:#BA68C8"></path><path d="M64.47,365.47a8.48,8.48,0,0,1-7-.15,8.43,8.43,0,0,1-3.69-6.68v-21l7.38,4.27v21C61.11,365.2,62.56,366.23,64.47,365.47Z" style="opacity:0.7000000000000001"></path><path d="M61.12,341.88v21c0,2.51,1.76,3.53,3.93,2.27L278.63,241.86a8.69,8.69,0,0,0,3.94-6.81V214Z" style="fill:#BA68C8"></path><g style="opacity:0.5"><path d="M61.12,341.88v21c0,2.51,1.76,3.53,3.93,2.27L278.63,241.86a8.69,8.69,0,0,0,3.94-6.81V214Z"></path></g><path d="M68.5,326.37v-148a5.19,5.19,0,0,1,2.36-4.09l202-116.61c1.3-.75,2.36-.14,2.36,1.37V207a5.22,5.22,0,0,1-2.36,4.09l-202,116.6C69.55,328.48,68.5,327.87,68.5,326.37Z" style="fill:#fafafa"></path><path d="M171.84,286.48a8.14,8.14,0,0,0-3.69,6.39c0,2.35,1.65,3.31,3.69,2.13a8.16,8.16,0,0,0,3.69-6.39C175.53,286.25,173.88,285.3,171.84,286.48Z" style="fill:#BA68C8"></path><path d="M171.84,286.48a8.14,8.14,0,0,0-3.69,6.39c0,2.35,1.65,3.31,3.69,2.13a8.16,8.16,0,0,0,3.69-6.39C175.53,286.25,173.88,285.3,171.84,286.48Z" style="fill:#fff;opacity:0.5"></path><path d="M62.27,172.06A8.39,8.39,0,0,0,61.11,176V341.88l-7.38-4.27V171.7a8.27,8.27,0,0,1,1.16-3.89Z" style="fill:#BA68C8"></path><path d="M62.27,172.06A8.39,8.39,0,0,0,61.11,176V341.88l-7.38-4.27V171.7a8.27,8.27,0,0,1,1.16-3.89Z" style="opacity:0.7000000000000001"></path></g></g><g id="freepik--Keyboard--inject-3"><path id="freepik--shadow--inject-3" d="M138.9,407.94l53.36,30.9a6.6,6.6,0,0,0,6,0L355.9,348c1.66-1,1.66-2.5,0-3.46l-53.37-30.9a6.6,6.6,0,0,0-6,0L138.9,404.49C137.25,405.44,137.24,407,138.9,407.94Z" style="fill:#e0e0e0"></path><g id="freepik--keyboard--inject-3"><path d="M352.67,339a2.11,2.11,0,0,0-1.24-1.73L301.3,308.34a6.6,6.6,0,0,0-6,0l-153,88.46a2.12,2.12,0,0,0-1.23,1.73v5.26a2.08,2.08,0,0,0,1.24,1.72l50.11,28.94a6.63,6.63,0,0,0,6,0l153-88.33a2.1,2.1,0,0,0,1.24-1.72Z" style="fill:#BA68C8"></path><path d="M352.67,339a2.11,2.11,0,0,0-1.24-1.73L301.3,308.34a6.6,6.6,0,0,0-6,0l-153,88.46a2.12,2.12,0,0,0-1.23,1.73v5.26a2.08,2.08,0,0,0,1.24,1.72l50.11,28.94a6.63,6.63,0,0,0,6,0l153-88.33a2.1,2.1,0,0,0,1.24-1.72Z" style="opacity:0.5"></path><path d="M192.45,429.07l-50.11-28.81c-1.65-.95-1.66-2.49,0-3.45l153-88.46a6.6,6.6,0,0,1,6,0l50.13,28.94c1.65,1,1.65,2.5,0,3.46l-153,88.33A6.63,6.63,0,0,1,192.45,429.07Z" style="fill:#BA68C8"></path><path d="M192.45,429.07l-50.11-28.81c-1.65-.95-1.66-2.49,0-3.45l153-88.46a6.6,6.6,0,0,1,6,0l50.13,28.94c1.65,1,1.65,2.5,0,3.46l-153,88.33A6.63,6.63,0,0,1,192.45,429.07Z" style="opacity:0.30000000000000004"></path><path d="M195.25,429.78v5.38a6.37,6.37,0,0,1-2.81-.69l-50.09-28.94a2.11,2.11,0,0,1-1.25-1.73v-5.27a2.14,2.14,0,0,0,1.25,1.73l50.09,28.82A6.12,6.12,0,0,0,195.25,429.78Z" style="fill:#BA68C8"></path><path d="M195.25,429.78v5.38a6.37,6.37,0,0,1-2.81-.69l-50.09-28.94a2.11,2.11,0,0,1-1.25-1.73v-5.27a2.14,2.14,0,0,0,1.25,1.73l50.09,28.82A6.12,6.12,0,0,0,195.25,429.78Z" style="opacity:0.7000000000000001"></path><path d="M259.24,345.6l5.71,3.3a.78.78,0,0,0,.37.09l5.26-2.93-6.14-3.46Z" style="fill:#37474f"></path><path d="M266.11,341.64l5.74,3.31a.71.71,0,0,0,.34.07h.21l5.05-2.92-6.14-3.45Z" style="fill:#37474f"></path><path d="M247.67,352.29l5.73,3.31a.74.74,0,0,0,.34.07l8.52-4.81-6.14-3.45Z" style="fill:#37474f"></path><path d="M240.8,356.26l5.72,3.3a.78.78,0,0,0,.35.08l5.27-2.93L246,353.26Z" style="fill:#37474f"></path><path d="M209.4,408.18l5.27-2.93-6.14-3.45-5.2,3,5.73,3.32A.94.94,0,0,0,209.4,408.18Z" style="fill:#37474f"></path><path d="M233.92,360.22l5.71,3.3a.71.71,0,0,0,.37.09l5.26-2.93-6.14-3.46Z" style="fill:#37474f"></path><path d="M272.21,347.09l-5.2,3,5.72,3.3a.67.67,0,0,0,.35.08l5.27-2.93Z" style="fill:#37474f"></path><path d="M253,374l5.27-2.93-6.15-3.45-5.2,3,5.73,3.31A.75.75,0,0,0,253,374Z" style="fill:#37474f"></path><path d="M280,349.51l5.26-2.93-6.14-3.46-5.2,3,5.74,3.31A.71.71,0,0,0,280,349.51Z" style="fill:#37474f"></path><path d="M246.13,378l5.26-2.93-6.14-3.46-5.2,3,5.71,3.3A.71.71,0,0,0,246.13,378Z" style="fill:#37474f"></path><path d="M239.26,382l5.26-2.93-6.14-3.46-5.2,3,5.73,3.31A.78.78,0,0,0,239.26,382Z" style="fill:#37474f"></path><path d="M266.74,366.1l11.05-6.27-13.9-7.94L258,355.31l7.27,4.19a.36.36,0,0,1,.21.3.32.32,0,0,1-.18.27l-4.59,2.65,5.7,3.29A.73.73,0,0,0,266.74,366.1Z" style="fill:#37474f"></path><path d="M220.18,368.16l5.73,3.31a.71.71,0,0,0,.34.07l5.27-2.93-6.15-3.45Z" style="fill:#37474f"></path><path d="M259.87,370.07l5.27-2.93L259,363.69l-5.2,3,5.69,3.28A.74.74,0,0,0,259.87,370.07Z" style="fill:#37474f"></path><path d="M181.57,406.31l5.27-2.93-6.15-3.46-5.2,3,5.71,3.29A.78.78,0,0,0,181.57,406.31Z" style="fill:#37474f"></path><path d="M165.2,399.9l5.74,3.32a.84.84,0,0,0,.33.07l.21,0,5.06-2.92-6.15-3.45Z" style="fill:#37474f"></path><path d="M191.15,409.75h.21l5-2.92-6.14-3.45-5.2,3,5.74,3.31A.86.86,0,0,0,191.15,409.75Z" style="fill:#37474f"></path><path d="M195.66,416.11l5.27-2.93-6.15-3.45-5.2,3,5.71,3.29A.67.67,0,0,0,195.66,416.11Z" style="fill:#37474f"></path><path d="M172.07,395.93l5.73,3.32a.94.94,0,0,0,.34.07l5.27-2.93-6.15-3.45Z" style="fill:#37474f"></path><path d="M202.53,412.15l5.26-2.94-6.14-3.45-5.19,3,5.73,3.31A.74.74,0,0,0,202.53,412.15Z" style="fill:#37474f"></path><path d="M192.69,384l5.72,3.31a.78.78,0,0,0,.35.07l5.27-2.92L197.88,381Z" style="fill:#37474f"></path><path d="M199.56,380.06l5.71,3.3a.71.71,0,0,0,.36.09l5.27-2.93-6.14-3.46Z" style="fill:#37474f"></path><path d="M206.43,376.09l5.7,3.3a.76.76,0,0,0,.37.09l5.27-2.93-6.14-3.45Z" style="fill:#37474f"></path><path d="M185.81,388l5.71,3.29a.73.73,0,0,0,.36.1l5.28-2.94L191,385Z" style="fill:#37474f"></path><path d="M213.31,372.13l5.73,3.31a.82.82,0,0,0,.34.07l5.27-2.93-6.15-3.45Z" style="fill:#37474f"></path><path d="M178.94,392l5.73,3.3a.78.78,0,0,0,.35.08l5.26-2.93L184.14,389Z" style="fill:#37474f"></path><path d="M227.05,364.19l5.74,3.32a.84.84,0,0,0,.33.07l5.27-2.93-6.14-3.46Z" style="fill:#37474f"></path><path d="M244.22,363.25l5.71,3.29a.73.73,0,0,0,.37.09h.21l5.05-2.92-6.14-3.45Z" style="fill:#37474f"></path><path d="M281.31,332.87l5.71,3.29a.75.75,0,0,0,.36.09l5.27-2.93-6.15-3.45Z" style="fill:#37474f"></path><path d="M288.18,328.9l5.71,3.29a.71.71,0,0,0,.36.09l5.27-2.93-6.14-3.45Z" style="fill:#37474f"></path><path d="M237.35,367.21l5.71,3.3a.75.75,0,0,0,.36.09l5.27-2.93-6.14-3.46Z" style="fill:#37474f"></path><path d="M295.05,324.93l5.71,3.3a.77.77,0,0,0,.36.09l5.27-2.94-6.14-3.45Z" style="fill:#37474f"></path><path d="M257.17,362.66h.21l5.05-2.92-6.14-3.45-5.2,3,5.71,3.29A.76.76,0,0,0,257.17,362.66Z" style="fill:#37474f"></path><path d="M289.07,337.35l5.7,3.29a.82.82,0,0,0,.38.1l5.26-2.93-6.14-3.46Z" style="fill:#37474f"></path><path d="M302.82,329.41l5.7,3.29a.73.73,0,0,0,.37.1l5.27-2.93L308,326.42Z" style="fill:#37474f"></path><path d="M302,336.77l5.27-2.93-6.15-3.46-5.2,3,5.73,3.31A.78.78,0,0,0,302,336.77Z" style="fill:#37474f"></path><path d="M323.21,333.25a.83.83,0,0,0,.32.07l.22,0,5.05-2.91-13.91-7.94-5.2,3Z" style="fill:#37474f"></path><path d="M230.47,371.18l5.72,3.3a.7.7,0,0,0,.36.09l.21,0,5.06-2.91-6.15-3.46Z" style="fill:#37474f"></path><path d="M309.79,341.25H310l5.05-2.92-6.14-3.45-5.2,3,5.71,3.29A.76.76,0,0,0,309.79,341.25Z" style="fill:#37474f"></path><path d="M316.66,337.28l5.27-2.93-6.15-3.45-5.2,3,5.7,3.29A.79.79,0,0,0,316.66,337.28Z" style="fill:#37474f"></path><path d="M196.11,391l5.71,3.29a.76.76,0,0,0,.37.1l5.26-2.93L201.31,388Z" style="fill:#37474f"></path><path d="M182.37,399l5.7,3.29a.73.73,0,0,0,.37.09h.21l5.06-2.92L187.56,396Z" style="fill:#37474f"></path><path d="M204.89,401.82l5.27-2.93L204,395.43l-5.19,3,5.74,3.31A.68.68,0,0,0,204.89,401.82Z" style="fill:#37474f"></path><path d="M198,405.78l5.27-2.93-6.15-3.45-5.2,3,5.74,3.31A.71.71,0,0,0,198,405.78Z" style="fill:#37474f"></path><path d="M211.76,397.85l.22,0,5.05-2.91-6.14-3.46-5.2,3,5.7,3.29A.73.73,0,0,0,211.76,397.85Z" style="fill:#37474f"></path><path d="M223.6,375.15l5.72,3.3a.77.77,0,0,0,.36.08h.21l5.05-2.92-6.14-3.45Z" style="fill:#37474f"></path><path d="M225.51,389.91l5.27-2.93-6.15-3.45-5.2,3,5.71,3.29A.78.78,0,0,0,225.51,389.91Z" style="fill:#37474f"></path><path d="M218.64,393.88,223.9,391l-6.14-3.45-5.2,3,5.74,3.32A.89.89,0,0,0,218.64,393.88Z" style="fill:#37474f"></path><path d="M209.86,383.09l5.7,3.29a.73.73,0,0,0,.37.09l5.27-2.93-6.14-3.45Z" style="fill:#37474f"></path><path d="M189.24,395l5.7,3.29a.77.77,0,0,0,.38.09l5.26-2.93L194.44,392Z" style="fill:#37474f"></path><path d="M216.73,379.12l5.71,3.29a.73.73,0,0,0,.37.09l5.26-2.93-6.14-3.45Z" style="fill:#37474f"></path><path d="M203,387.05l5.7,3.3a.73.73,0,0,0,.37.09l.21,0,5.06-2.91-6.15-3.46Z" style="fill:#37474f"></path><path d="M232.38,385.94l5.27-2.93-6.15-3.45-5.19,3,5.72,3.3A.67.67,0,0,0,232.38,385.94Z" style="fill:#37474f"></path><path d="M273,337.67l5.73,3.31a.77.77,0,0,0,.34.07l5.27-2.93-6.15-3.45Z" style="fill:#37474f"></path><path d="M163.52,400.87l-5.2,3,5.74,3.31a.71.71,0,0,0,.34.07h.21l5.06-2.92Z" style="fill:#37474f"></path><path d="M173.82,403.89l-7.73,4.46,5.74,3.32a.84.84,0,0,0,.33.07h.22l7.58-4.38Z" style="fill:#37474f"></path><path d="M155.18,394.8l-6.29,3.63,5.72,3.29a.7.7,0,0,0,.36.09l6.35-3.55Z" style="fill:#37474f"></path><path d="M187.91,413.7l-6.28,3.63,5.7,3.29a.78.78,0,0,0,.37.09l6.35-3.56Z" style="fill:#37474f"></path><path d="M183.39,407.34l-9.53,5.5,5.73,3.31a.77.77,0,0,0,.34.07h.21l9.4-5.42Z" style="fill:#37474f"></path><path d="M165.92,395.49l5.26-2.93L165,389.11l-5.2,3,5.71,3.3A.73.73,0,0,0,165.92,395.49Z" style="fill:#37474f"></path><path d="M189.39,421.81l5.71,3.3a.83.83,0,0,0,.36.08l7.8-4.39-6.14-3.45Z" style="fill:#37474f"></path><path d="M172.79,391.52l5.27-2.93-6.15-3.45-5.19,3,5.73,3.31A.77.77,0,0,0,172.79,391.52Z" style="fill:#37474f"></path><path d="M203.27,373.93l.21,0,5.06-2.92-6.15-3.45-5.19,3,5.71,3.3A.71.71,0,0,0,203.27,373.93Z" style="fill:#37474f"></path><path d="M210.14,370l5.27-2.93-6.14-3.46-5.2,3,5.72,3.3A.69.69,0,0,0,210.14,370Z" style="fill:#37474f"></path><path d="M196.4,377.89h.21l5-2.92-6.14-3.45-5.2,3L196,377.8A.76.76,0,0,0,196.4,377.89Z" style="fill:#37474f"></path><path d="M186.53,383.59l.22,0,5.05-2.91-6.14-3.46-5.2,3,5.72,3.3A.65.65,0,0,0,186.53,383.59Z" style="fill:#37474f"></path><path d="M179.66,387.56l5.27-2.93-6.14-3.46-5.2,3,5.73,3.31A.71.71,0,0,0,179.66,387.56Z" style="fill:#37474f"></path><path d="M326.13,342.87l5.74,3.32a.84.84,0,0,0,.33.06h.21l5-2.92-6.14-3.45Z" style="fill:#37474f"></path><path d="M290.31,363.54l5.7,3.29a.68.68,0,0,0,.37.1l5.27-2.93-6.14-3.46Z" style="fill:#37474f"></path><path d="M312.38,350.81l5.71,3.29a.75.75,0,0,0,.36.09h.21l11.93-6.89-6.14-3.45Z" style="fill:#37474f"></path><path d="M297.18,359.58l5.7,3.28a.71.71,0,0,0,.38.1l5.27-2.93-6.15-3.45Z" style="fill:#37474f"></path><path d="M304.06,355.61l5.68,3.27a.65.65,0,0,0,.39.11l5.27-2.93-6.15-3.45Z" style="fill:#37474f"></path><path d="M217,366h.22l5.05-2.92-6.14-3.46-5.2,3,5.7,3.29A.76.76,0,0,0,217,366Z" style="fill:#37474f"></path><path d="M330.43,331.41l-5.2,3,13.51,7.8a.84.84,0,0,0,.33.07l.21,0,5.05-2.92Z" style="fill:#37474f"></path><path d="M206.76,411.79l5.7,3.29a.78.78,0,0,0,.37.09l6.35-3.56L213,408.16Z" style="fill:#37474f"></path><path d="M214.71,407.19l5.7,3.29a.77.77,0,0,0,.38.1l.21,0L260.06,388l-6.15-3.46Z" style="fill:#37474f"></path><path d="M216.27,404.21l5.27-2.93-6.14-3.45-5.2,3,5.73,3.3A.77.77,0,0,0,216.27,404.21Z" style="fill:#37474f"></path><path d="M198.8,416.38l5.7,3.29a.79.79,0,0,0,.37.1l6.35-3.56-6.14-3.46Z" style="fill:#37474f"></path><path d="M255.59,383.59l5.71,3.3a.82.82,0,0,0,.36.09l.22,0,6.13-3.54L261.87,380Z" style="fill:#37474f"></path><path d="M271.5,374.4l5.73,3.31a.73.73,0,0,0,.35.08l.21,0,6.14-3.54-6.14-3.46Z" style="fill:#37474f"></path><path d="M263.54,379l5.74,3.31a.77.77,0,0,0,.34.07l6.35-3.56-6.14-3.45Z" style="fill:#37474f"></path><path d="M279.46,369.81l5.71,3.29a.73.73,0,0,0,.37.09h.21l7.58-4.38-6.14-3.45Z" style="fill:#37474f"></path><path d="M286.83,345.54l.21,0,5.06-2.91L286,339.15l-5.2,3,5.73,3.31A.75.75,0,0,0,286.83,345.54Z" style="fill:#37474f"></path><path d="M295.49,358.48l.21,0,5.06-2.92-6.14-3.45-5.2,3,5.72,3.31A.75.75,0,0,0,295.49,358.48Z" style="fill:#37474f"></path><path d="M271.26,372.47l14.31-8.16-6.15-3.45-14.24,8.22,5.74,3.31A.69.69,0,0,0,271.26,372.47Z" style="fill:#37474f"></path><path d="M310.68,349.7h.22l5.05-2.92-6.14-3.45-5.2,3,5.73,3.31A.77.77,0,0,0,310.68,349.7Z" style="fill:#37474f"></path><path d="M317.56,345.74l.21,0,5.05-2.91-6.14-3.46-5.2,3,5.72,3.31A.79.79,0,0,0,317.56,345.74Z" style="fill:#37474f"></path><path d="M264.38,376.44l5.27-2.93-6.14-3.46-5.2,3,5.71,3.3A.8.8,0,0,0,264.38,376.44Z" style="fill:#37474f"></path><path d="M302.92,345.22h.21l5.05-2.92L302,338.84l-5.2,3,5.7,3.28A.68.68,0,0,0,302.92,345.22Z" style="fill:#37474f"></path><path d="M230,396.27l5.27-2.93-6.15-3.45-5.19,3,5.73,3.31A.71.71,0,0,0,230,396.27Z" style="fill:#37474f"></path><path d="M257.51,380.4l5.27-2.93L256.63,374l-5.19,3,5.74,3.32A.91.91,0,0,0,257.51,380.4Z" style="fill:#37474f"></path><path d="M223.15,400.24h.21l5-2.92-6.14-3.45-5.2,3,5.74,3.31A.71.71,0,0,0,223.15,400.24Z" style="fill:#37474f"></path><path d="M236.89,392.31l5.27-2.93L236,385.92l-5.2,3,5.75,3.32A.72.72,0,0,0,236.89,392.31Z" style="fill:#37474f"></path><path d="M243.77,388.34H244l5.05-2.92L242.89,382l-5.2,3,5.71,3.3A.71.71,0,0,0,243.77,388.34Z" style="fill:#37474f"></path><path d="M250.64,384.37h.21l5.06-2.92L249.76,378l-5.2,3,5.74,3.31A.86.86,0,0,0,250.64,384.37Z" style="fill:#37474f"></path><path d="M233.75,356.33,239,353.4l-6.15-3.46-5.2,3,5.71,3.29A.66.66,0,0,0,233.75,356.33Z" style="fill:#37474f"></path><path d="M324.43,341.77l.21,0,5.06-2.91-6.15-3.46-5.2,3,5.74,3.32A.86.86,0,0,0,324.43,341.77Z" style="fill:#37474f"></path><path d="M247.5,348.39l5.26-2.93L246.62,342l-5.2,3,5.7,3.29A.77.77,0,0,0,247.5,348.39Z" style="fill:#37474f"></path><path d="M262.76,339.58l5.27-2.93-6.15-3.46-5.19,3,5.71,3.3A.7.7,0,0,0,262.76,339.58Z" style="fill:#37474f"></path><path d="M255.89,343.55l5.26-2.93L255,337.16l-5.2,3,5.71,3.3A.76.76,0,0,0,255.89,343.55Z" style="fill:#37474f"></path><path d="M226.88,360.3l5.27-2.94L226,353.91l-5.19,3,5.71,3.3A.82.82,0,0,0,226.88,360.3Z" style="fill:#37474f"></path><path d="M240.62,352.36h.22l5-2.92L239.75,346l-5.2,3,5.7,3.29A.76.76,0,0,0,240.62,352.36Z" style="fill:#37474f"></path><path d="M269.63,335.61l5.27-2.93-6.14-3.45-5.2,3,5.71,3.29A.7.7,0,0,0,269.63,335.61Z" style="fill:#37474f"></path><path d="M296.58,317.75l5.26-2.93L298.5,313l-5.2,3,2.92,1.65A.83.83,0,0,0,296.58,317.75Z" style="fill:#37474f"></path><path d="M308,324.35l5.27-2.93L307.12,318l-5.2,3,5.71,3.3A.78.78,0,0,0,308,324.35Z" style="fill:#37474f"></path><path d="M276,329.66l.21,0,5.05-2.92-3.34-1.8-5.2,3,2.91,1.65A.89.89,0,0,0,276,329.66Z" style="fill:#37474f"></path><path d="M282.83,325.69l.21,0,5-2.91L284.76,321l-5.2,3,2.93,1.65A.77.77,0,0,0,282.83,325.69Z" style="fill:#37474f"></path><path d="M289.7,321.72l5.27-2.93L291.63,317l-5.2,3,2.94,1.66A.84.84,0,0,0,289.7,321.72Z" style="fill:#37474f"></path></g></g></g></svg>